<?xml version="1.0" encoding="UTF-8"?>
<svg id="Layer_1" data-name="Layer 1" xmlns="http://www.w3.org/2000/svg" viewBox="0 0 220.21 284.07">
  <defs>
    <style>
      .cls-1 {
        fill: #1d1d1b;
      }
    </style>
  </defs>
  <path class="cls-1" d="M53.39,93c-2.29-2.6,.43-6.54,3.67-5.31,10.74,4.07,28.93,9.13,53.05,9.13s42.31-5.06,53.05-9.13c3.24-1.23,5.96,2.71,3.67,5.31-9.06,10.27-26.97,24.5-56.71,24.5s-47.65-14.23-56.71-24.5Z"/>
  <path class="cls-1" d="M35.41,134.43c-3.33-3.67,.5-9.36,5.15-7.64,14.44,5.34,38.25,11.73,69.53,11.73s55.09-6.39,69.53-11.73c4.65-1.72,8.49,3.96,5.15,7.64-12.33,13.59-36,31.66-74.69,31.66s-62.35-18.07-74.69-31.66Z"/>
  <path class="cls-1" d="M15.59,184c-4.73-5.04,.57-13.01,7.07-10.67,18.7,6.71,48.59,14.39,87.44,14.39s68.73-7.67,87.44-14.39c6.51-2.33,11.81,5.64,7.07,10.67-16.21,17.25-46.28,39.12-94.51,39.12S31.8,201.25,15.59,184Z"/>
  <path class="cls-1" d="M1.77,237.94c-4.72-5.24,.8-13.29,7.41-10.83,20.85,7.75,55.42,17.1,100.92,17.1s80.07-9.35,100.92-17.1c6.61-2.46,12.13,5.59,7.41,10.83-17.75,19.7-52.06,46.13-108.34,46.13S19.52,257.64,1.77,237.94Z"/>
  <path class="cls-1" d="M70.93,62.23c-2.39-2.38,.12-6.37,3.31-5.29,8.05,2.73,20.26,5.62,35.86,5.62s27.8-2.89,35.85-5.62c3.25-1.1,5.67,2.96,3.23,5.37-7.19,7.12-19.7,15.38-39.08,15.38s-31.99-8.33-39.17-15.46Z"/>
  <path class="cls-1" d="M105.34,2.36c2.05-3.1,6.58-3.16,8.72-.11,9.29,13.26,27.4,44.02-4.44,44.02-30.11,0-13.11-30.6-4.28-43.92Z"/>
</svg>