<?xml version="1.0" encoding="UTF-8"?>
<svg id="Layer_1" data-name="Layer 1" xmlns="http://www.w3.org/2000/svg" viewBox="0 0 395.05 112.66">
  <defs>
    <style>
      .cls-1 {
        fill: #1d1d1b;
      }
    </style>
  </defs>
  <g>
    <path class="cls-1" d="M21.18,36.88c-.91-1.03,.17-2.59,1.45-2.11,4.26,1.61,11.48,3.62,21.04,3.62s16.78-2.01,21.04-3.62c1.28-.49,2.36,1.08,1.45,2.11-3.59,4.07-10.7,9.72-22.49,9.72s-18.9-5.64-22.49-9.72Z"/>
    <path class="cls-1" d="M14.05,53.31c-1.32-1.46,.2-3.71,2.04-3.03,5.73,2.12,15.17,4.65,27.58,4.65s21.85-2.53,27.58-4.65c1.84-.68,3.37,1.57,2.04,3.03-4.89,5.39-14.28,12.56-29.62,12.56s-24.73-7.17-29.62-12.56Z"/>
    <path class="cls-1" d="M6.18,72.97c-1.88-2,.23-5.16,2.81-4.23,7.42,2.66,19.27,5.71,34.68,5.71s27.26-3.04,34.68-5.71c2.58-.93,4.68,2.23,2.81,4.23-6.43,6.84-18.35,15.52-37.48,15.52s-31.05-8.67-37.48-15.52Z"/>
    <path class="cls-1" d="M.7,94.37c-1.87-2.08,.32-5.27,2.94-4.3,8.27,3.07,21.98,6.78,40.03,6.78s31.76-3.71,40.03-6.78c2.62-.97,4.81,2.22,2.94,4.3-7.04,7.81-20.65,18.3-42.97,18.3S7.74,102.18,.7,94.37Z"/>
    <path class="cls-1" d="M28.13,24.68c-.95-.94,.05-2.53,1.31-2.1,3.19,1.08,8.04,2.23,14.22,2.23s11.03-1.15,14.22-2.23c1.29-.44,2.25,1.17,1.28,2.13-2.85,2.82-7.81,6.1-15.5,6.1s-12.69-3.3-15.53-6.13Z"/>
    <path class="cls-1" d="M41.78,.94c.81-1.23,2.61-1.25,3.46-.04,3.68,5.26,10.87,17.46-1.76,17.46-11.94,0-5.2-12.13-1.7-17.42Z"/>
  </g>
  <g>
    <path class="cls-1" d="M124,90.91c-3.11,0-5.66-.2-7.66-.59-2-.39-3.59-.97-4.78-1.74-1.19-.76-2-1.72-2.45-2.88-.45-1.16-.67-2.53-.67-4.11,0-.47,.03-1.15,.08-2.01,.05-.87,.13-2.09,.24-3.67,.1-1.58,.25-3.62,.43-6.12,.18-2.5,.43-5.65,.75-9.44,.37-4.69,.66-8.4,.87-11.14,.21-2.74,.37-4.86,.47-6.36,.1-1.5,.17-2.55,.2-3.16,.03-.6,.04-1.12,.04-1.54,0-.84,.01-1.53,.04-2.05,.03-.53,.08-.93,.16-1.22,.08-.29,.21-.5,.4-.63,.18-.13,.46-.2,.83-.2,3.11-.21,5.75-.37,7.94-.47,2.18-.1,4.09-.16,5.73-.16,4,0,7.44,.33,10.31,.99,2.87,.66,5.2,1.59,6.99,2.8,1.79,1.21,3.11,2.71,3.95,4.5,.84,1.79,1.26,3.82,1.26,6.08,0,1.26-.13,2.57-.39,3.91-.26,1.34-.71,2.62-1.34,3.83-.63,1.21-1.49,2.28-2.57,3.2-1.08,.92-2.44,1.59-4.07,2.01,3.05,.95,5.21,2.52,6.48,4.7,1.26,2.19,1.89,4.78,1.89,7.78,0,2.42-.39,4.7-1.18,6.83-.79,2.13-2.16,4-4.11,5.61-1.95,1.61-4.53,2.88-7.74,3.83-3.21,.95-7.24,1.42-12.09,1.42Zm4.5-24.49c-.58,0-1.29,.04-2.13,.12-.84,.08-1.71,.2-2.61,.36l-.87,12.88c1.9,.58,3.61,.87,5.14,.87,1.63,0,2.95-.24,3.95-.71,1-.47,1.78-1.07,2.33-1.78,.55-.71,.92-1.5,1.11-2.37,.18-.87,.28-1.67,.28-2.41,0-1.95-.54-3.59-1.62-4.94-1.08-1.34-2.94-2.01-5.57-2.01Zm-3.32-21.72c-.11,1.37-.2,2.98-.28,4.82-.08,1.84-.2,3.85-.36,6,1.69,.42,3.19,.63,4.5,.63,1.58,0,2.84-.18,3.79-.55,.95-.37,1.7-.84,2.25-1.42,.55-.58,.92-1.21,1.11-1.9,.18-.68,.28-1.34,.28-1.98,0-1.63-.54-3.04-1.62-4.23-1.08-1.19-2.94-1.78-5.57-1.78-.58,0-1.22,.04-1.94,.12-.71,.08-1.44,.17-2.17,.28Z"/>
    <path class="cls-1" d="M173.69,90.91c-2.32,0-4.62-.29-6.91-.87s-4.34-1.58-6.16-3c-1.82-1.42-3.31-3.32-4.46-5.69-1.16-2.37-1.74-5.34-1.74-8.93,0-1.32,.11-2.9,.32-4.74,.21-1.84,.62-3.74,1.22-5.69,.6-1.95,1.45-3.88,2.53-5.81,1.08-1.92,2.49-3.65,4.23-5.17,1.74-1.53,3.84-2.77,6.32-3.71,2.47-.95,5.42-1.42,8.85-1.42,2.74,0,5.06,.32,6.95,.95,1.9,.63,3.42,1.49,4.58,2.57,1.16,1.08,2,2.33,2.53,3.75,.53,1.42,.79,2.95,.79,4.58,0,2.42-.49,4.48-1.46,6.16-.97,1.69-2.24,3.09-3.79,4.23-1.55,1.13-3.28,2.01-5.17,2.65-1.9,.63-3.77,1.12-5.61,1.46-1.84,.34-3.54,.55-5.1,.63-1.55,.08-2.75,.12-3.59,.12,0,1,.14,1.99,.43,2.96,.29,.98,.72,1.83,1.3,2.57,.58,.74,1.34,1.34,2.29,1.82s2.11,.71,3.48,.71,2.44-.22,3.2-.67c.76-.45,1.38-.95,1.86-1.5,.47-.55,.88-1.05,1.22-1.5,.34-.45,.8-.67,1.38-.67,.26,0,.72,.07,1.38,.2,.66,.13,1.33,.41,2.01,.83,.68,.42,1.29,1,1.82,1.74,.53,.74,.79,1.69,.79,2.84,0,1.53-.47,2.84-1.42,3.95s-2.17,2-3.67,2.69c-1.5,.69-3.17,1.19-5.02,1.5-1.84,.32-3.63,.47-5.37,.47Zm1.5-34.52c-1.16,0-2.15,.33-2.96,.99-.82,.66-1.5,1.49-2.05,2.49-.55,1-.98,2.11-1.26,3.32-.29,1.21-.51,2.37-.67,3.48,3.26-.05,5.91-.6,7.94-1.66,2.03-1.05,3.04-2.55,3.04-4.5,0-1.05-.33-2-.99-2.84-.66-.84-1.67-1.26-3.04-1.26Z"/>
    <path class="cls-1" d="M224.41,83.17c0-1.16,.09-2.67,.28-4.54,.18-1.87,.37-3.84,.55-5.92,.18-2.08,.37-4.09,.55-6.04,.18-1.95,.28-3.58,.28-4.9s-.33-2.59-.99-3.67c-.66-1.08-1.94-1.62-3.83-1.62s-3.37,.45-4.58,1.34c-1.21,.9-2.23,2.53-3.04,4.9-.82,2.37-1.49,5.64-2.01,9.8-.53,4.16-1.03,9.51-1.5,16.04-.05,.63-.19,1.05-.39,1.26-.21,.21-.66,.32-1.34,.32h-2.84c-1.63,0-2.96-.17-3.99-.51-1.03-.34-1.84-.83-2.45-1.46-.61-.63-1.03-1.41-1.26-2.33-.24-.92-.36-1.99-.36-3.2,0-.79,.04-1.91,.12-3.36,.08-1.45,.22-3.45,.43-6,.21-2.55,.46-5.79,.75-9.72,.29-3.92,.64-8.78,1.07-14.58,.05-1.16,.18-1.84,.39-2.05,.16-.16,.58-.24,1.26-.24h3.08c1.58,0,2.88,.19,3.91,.55,1.03,.37,1.86,.86,2.49,1.46,.63,.61,1.08,1.32,1.34,2.13,.26,.82,.42,1.65,.47,2.49,1.63-2.79,3.5-4.73,5.61-5.81,2.11-1.08,4.74-1.62,7.9-1.62,2.21,0,4.13,.24,5.77,.71,1.63,.47,2.99,1.28,4.07,2.41,1.08,1.13,1.88,2.61,2.41,4.42,.53,1.82,.79,4.07,.79,6.75,0,.84-.05,2.05-.16,3.63-.11,1.58-.24,3.31-.4,5.17-.16,1.87-.33,3.82-.51,5.85-.19,2.03-.36,3.91-.51,5.65-.16,1.74-.29,3.27-.4,4.58-.11,1.32-.16,2.19-.16,2.61,0,1.16-.13,1.86-.39,2.09-.26,.24-.84,.36-1.74,.36h-2.53c-1.69,0-3.06-.16-4.11-.47-1.05-.32-1.87-.76-2.45-1.34-.58-.58-.99-1.3-1.22-2.17-.24-.87-.36-1.86-.36-2.96Z"/>
    <path class="cls-1" d="M263.36,57.33c-.16,2-.33,3.98-.51,5.93-.19,1.95-.36,3.79-.51,5.53-.16,1.74-.28,3.29-.36,4.66-.08,1.37-.12,2.42-.12,3.16,0,1.37,.16,2.28,.47,2.73,.32,.45,.84,.67,1.58,.67,.58,0,1.08-.1,1.5-.32,.42-.21,.82-.45,1.18-.71,.37-.26,.7-.5,.99-.71,.29-.21,.62-.32,.99-.32s.71,.21,1.03,.63c.32,.42,.47,1.4,.47,2.92,0,2.9-.79,5.19-2.37,6.87-1.58,1.69-4.29,2.53-8.14,2.53s-6.6-.88-8.41-2.65c-1.82-1.76-2.73-4.46-2.73-8.1,0-.79,.04-1.72,.12-2.8,.08-1.08,.2-2.49,.36-4.23,.16-1.74,.36-3.87,.59-6.4,.24-2.53,.49-5.66,.75-9.4h-4.19c-.42,0-.67-.09-.75-.28-.08-.18-.12-.46-.12-.83l.24-4.03c.05-.68,.14-1.36,.28-2.01,.13-.66,.4-1.25,.79-1.78,.4-.53,.96-.95,1.7-1.26,.74-.32,1.71-.47,2.92-.47,.37-.95,.79-2.08,1.26-3.4,.47-1.32,.95-2.59,1.42-3.83,.47-1.24,.93-2.28,1.38-3.12,.45-.84,.86-1.26,1.22-1.26h2.29c2.21,0,3.74,.69,4.58,2.05,.84,1.37,1.26,3,1.26,4.9,0,1.05-.08,2.61-.24,4.66h8.29c.84,0,1.26,.37,1.26,1.11l-.32,4.27c-.11,1.58-.54,2.86-1.3,3.83-.76,.98-2.33,1.46-4.7,1.46h-4.19Z"/>
    <path class="cls-1" d="M303.41,65.55c-.32,0-.67-.01-1.07-.04-.39-.03-.78-.08-1.15-.16-.37-.08-.68-.18-.95-.32-.26-.13-.39-.3-.39-.51,0-.68,.03-1.32,.08-1.9,.05-.58,.08-1.18,.08-1.82,0-1.16-.16-2.11-.47-2.84-.32-.74-.95-1.11-1.9-1.11-1.48,0-2.7,.96-3.67,2.88-.97,1.92-1.59,4.81-1.86,8.65-.11,1.69-.25,3.59-.43,5.73-.19,2.13-.36,4.19-.51,6.16s-.29,3.73-.39,5.25c-.11,1.53-.16,2.53-.16,3,0,.53-.19,.92-.55,1.19-.37,.26-.76,.4-1.19,.4h-2.84c-1.63,0-2.96-.17-3.99-.51-1.03-.34-1.84-.83-2.45-1.46-.61-.63-1.03-1.41-1.26-2.33-.24-.92-.36-1.99-.36-3.2,0-.79,.04-1.91,.12-3.36,.08-1.45,.22-3.45,.43-6,.21-2.55,.46-5.79,.75-9.72,.29-3.92,.64-8.78,1.07-14.58,.1-1.53,.66-2.29,1.66-2.29h3.08c1.47,0,2.71,.16,3.71,.47,1,.32,1.82,.75,2.45,1.3,.63,.55,1.09,1.2,1.38,1.94,.29,.74,.49,1.5,.59,2.29,.63-1.21,1.38-2.25,2.25-3.12s1.78-1.58,2.73-2.13c.95-.55,1.92-.95,2.92-1.18,1-.24,1.92-.36,2.77-.36,1,0,2.01,.19,3.04,.55,1.03,.37,1.96,.92,2.8,1.66,.84,.74,1.51,1.69,2.01,2.84,.5,1.16,.75,2.53,.75,4.11,0,1.42-.21,2.77-.63,4.03-.42,1.26-1.03,2.38-1.82,3.36-.79,.98-1.75,1.74-2.88,2.29-1.13,.55-2.38,.83-3.75,.83Z"/>
    <path class="cls-1" d="M333.98,90.91c-2.32,0-4.62-.29-6.91-.87s-4.34-1.58-6.16-3c-1.82-1.42-3.31-3.32-4.46-5.69-1.16-2.37-1.74-5.34-1.74-8.93,0-1.32,.11-2.9,.32-4.74,.21-1.84,.62-3.74,1.22-5.69,.6-1.95,1.45-3.88,2.53-5.81,1.08-1.92,2.49-3.65,4.23-5.17,1.74-1.53,3.84-2.77,6.32-3.71,2.47-.95,5.42-1.42,8.85-1.42,2.74,0,5.06,.32,6.95,.95,1.9,.63,3.42,1.49,4.58,2.57,1.16,1.08,2,2.33,2.53,3.75,.53,1.42,.79,2.95,.79,4.58,0,2.42-.49,4.48-1.46,6.16-.97,1.69-2.24,3.09-3.79,4.23-1.55,1.13-3.28,2.01-5.17,2.65-1.9,.63-3.77,1.12-5.61,1.46-1.84,.34-3.54,.55-5.1,.63-1.55,.08-2.75,.12-3.59,.12,0,1,.14,1.99,.43,2.96,.29,.98,.72,1.83,1.3,2.57,.58,.74,1.34,1.34,2.29,1.82s2.11,.71,3.48,.71,2.44-.22,3.2-.67c.76-.45,1.38-.95,1.86-1.5,.47-.55,.88-1.05,1.22-1.5,.34-.45,.8-.67,1.38-.67,.26,0,.72,.07,1.38,.2,.66,.13,1.33,.41,2.01,.83,.68,.42,1.29,1,1.82,1.74,.53,.74,.79,1.69,.79,2.84,0,1.53-.47,2.84-1.42,3.95s-2.17,2-3.67,2.69c-1.5,.69-3.17,1.19-5.02,1.5-1.84,.32-3.63,.47-5.37,.47Zm1.5-34.52c-1.16,0-2.15,.33-2.96,.99-.82,.66-1.5,1.49-2.05,2.49-.55,1-.98,2.11-1.26,3.32-.29,1.21-.51,2.37-.67,3.48,3.26-.05,5.91-.6,7.94-1.66,2.03-1.05,3.04-2.55,3.04-4.5,0-1.05-.33-2-.99-2.84-.66-.84-1.67-1.26-3.04-1.26Z"/>
    <path class="cls-1" d="M376.01,90.91c-2.32,0-4.62-.29-6.91-.87s-4.34-1.58-6.16-3c-1.82-1.42-3.31-3.32-4.46-5.69-1.16-2.37-1.74-5.34-1.74-8.93,0-1.32,.11-2.9,.32-4.74,.21-1.84,.62-3.74,1.22-5.69,.6-1.95,1.45-3.88,2.53-5.81,1.08-1.92,2.49-3.65,4.23-5.17,1.74-1.53,3.84-2.77,6.32-3.71,2.47-.95,5.42-1.42,8.85-1.42,2.74,0,5.06,.32,6.95,.95,1.9,.63,3.42,1.49,4.58,2.57,1.16,1.08,2,2.33,2.53,3.75,.53,1.42,.79,2.95,.79,4.58,0,2.42-.49,4.48-1.46,6.16-.97,1.69-2.24,3.09-3.79,4.23-1.55,1.13-3.28,2.01-5.17,2.65-1.9,.63-3.77,1.12-5.61,1.46-1.84,.34-3.54,.55-5.1,.63-1.55,.08-2.75,.12-3.59,.12,0,1,.14,1.99,.43,2.96,.29,.98,.72,1.83,1.3,2.57,.58,.74,1.34,1.34,2.29,1.82s2.11,.71,3.48,.71,2.44-.22,3.2-.67c.76-.45,1.38-.95,1.86-1.5,.47-.55,.88-1.05,1.22-1.5,.34-.45,.8-.67,1.38-.67,.26,0,.72,.07,1.38,.2,.66,.13,1.33,.41,2.01,.83,.68,.42,1.29,1,1.82,1.74,.53,.74,.79,1.69,.79,2.84,0,1.53-.47,2.84-1.42,3.95s-2.17,2-3.67,2.69c-1.5,.69-3.17,1.19-5.02,1.5-1.84,.32-3.63,.47-5.37,.47Zm1.5-34.52c-1.16,0-2.15,.33-2.96,.99-.82,.66-1.5,1.49-2.05,2.49-.55,1-.98,2.11-1.26,3.32-.29,1.21-.51,2.37-.67,3.48,3.26-.05,5.91-.6,7.94-1.66,2.03-1.05,3.04-2.55,3.04-4.5,0-1.05-.33-2-.99-2.84-.66-.84-1.67-1.26-3.04-1.26Z"/>
  </g>
</svg>